 <svg  version="1.0" xmlns="http://www.w3.org/2000/svg" viewBox="0 0 900.000000 972.000000"  preserveAspectRatio="xMidYMid meet">  <g transform="translate(0.000000,972.000000) scale(0.100000,-0.100000)" fill="#d52b1e" stroke="none"> <path d="M4453 9553 c-27 -54 -54 -107 -60 -118 -6 -11 -21 -40 -34 -65 -70 -143 -260 -514 -267 -523 -5 -7 -13 -23 -17 -37 -4 -14 -18 -41 -30 -60 -12 -19 -26 -46 -30 -59 -4 -14 -12 -29 -16 -35 -5 -6 -53 -96 -105 -201 -53 -104 -99 -194 -104 -200 -4 -5 -11 -21 -15 -34 -11 -36 -66 -123 -90 -143 -38 -31 -101 -43 -159 -28 -28 7 -53 16 -56 20 -3 4 -35 24 -72 44 -38 20 -109 61 -159 91 -50 30 -94 55 -96 55 -3 0 -55 30 -116 67 -61 37 -127 75 -147 85 -19 10 -44 24 -55 31 -10 6 -37 23 -59 36 l-39 23 7 -23 c8 -27 30 -134 51 -249 8 -41 21 -109 30 -150 8 -41 20 -104 25 -140 6 -36 14 -76 20 -90 5 -14 14 -56 20 -95 5 -38 17 -101 25 -140 9 -38 20 -101 25 -140 6 -38 14 -81 20 -95 5 -14 14 -53 20 -87 26 -160 31 -189 40 -218 5 -16 13 -59 19 -95 6 -36 17 -99 26 -140 9 -41 20 -104 26 -140 5 -36 13 -76 19 -90 5 -14 14 -53 20 -87 5 -35 15 -91 20 -125 6 -35 14 -74 19 -88 5 -14 12 -53 15 -88 3 -35 10 -71 15 -80 5 -10 15 -55 21 -101 15 -101 6 -142 -45 -194 -39 -40 -96 -55 -162 -42 -46 8 -98 59 -463 455 -63 68 -136 145 -161 171 -26 27 -85 90 -131 141 -46 51 -114 125 -150 163 -36 39 -90 97 -121 129 l-55 60 -21 -42 c-12 -23 -21 -46 -21 -51 0 -10 -23 -64 -71 -167 -10 -23 -19 -46 -19 -51 0 -6 -13 -37 -30 -69 -16 -32 -30 -63 -30 -67 0 -4 -13 -37 -30 -72 -16 -35 -30 -67 -30 -70 0 -4 -16 -21 -35 -40 -53 -50 -108 -53 -295 -15 -30 6 -64 15 -75 21 -11 5 -49 14 -85 19 -36 5 -96 16 -135 25 -38 9 -96 21 -129 26 -32 5 -78 16 -103 24 -24 8 -55 15 -68 15 -27 0 -94 15 -170 37 -27 9 -77 19 -110 24 -33 5 -91 16 -130 25 -141 31 -138 32 -110 -22 8 -16 15 -36 15 -45 0 -8 11 -44 25 -79 14 -35 25 -73 25 -84 0 -12 6 -32 13 -46 7 -14 30 -79 51 -145 21 -66 49 -149 62 -185 12 -36 26 -80 29 -98 4 -18 13 -45 21 -60 8 -15 14 -35 14 -44 0 -9 5 -20 10 -23 6 -3 10 -18 10 -33 1 -15 9 -45 20 -67 11 -22 20 -47 20 -55 1 -16 32 -109 42 -125 3 -6 9 -28 13 -50 4 -22 11 -44 15 -50 18 -25 40 -119 40 -168 0 -80 -35 -123 -142 -175 -213 -102 -373 -176 -406 -186 -12 -4 -22 -11 -22 -16 0 -7 85 -80 239 -202 29 -24 59 -47 65 -53 6 -5 34 -28 61 -50 28 -22 55 -45 60 -51 6 -6 39 -33 75 -59 36 -27 67 -52 70 -55 3 -3 38 -33 79 -66 41 -32 113 -90 161 -129 48 -38 120 -97 161 -130 41 -32 80 -65 87 -72 7 -7 41 -34 75 -60 34 -27 69 -55 78 -63 9 -8 31 -26 49 -40 48 -37 152 -122 180 -147 14 -13 28 -23 32 -23 4 0 15 -8 25 -19 10 -10 57 -49 104 -87 47 -38 164 -133 261 -211 438 -352 431 -346 431 -432 0 -36 -8 -73 -21 -103 -12 -26 -22 -53 -22 -61 0 -13 -14 -52 -39 -112 -5 -11 -19 -49 -31 -85 -12 -36 -26 -73 -31 -82 -5 -10 -9 -23 -9 -31 0 -7 -9 -29 -20 -50 -11 -20 -20 -47 -20 -60 0 -13 -4 -27 -9 -33 -5 -5 -22 -48 -39 -96 l-30 -87 47 5 c25 3 78 11 116 19 39 7 102 18 140 25 39 6 104 17 145 25 41 9 107 19 145 25 39 5 97 16 130 24 32 9 72 16 87 16 15 0 47 4 70 10 82 18 154 31 238 40 47 5 94 14 105 20 20 9 94 22 235 40 41 6 86 14 100 20 14 5 59 14 100 20 41 6 111 17 155 26 44 8 130 20 190 26 142 14 180 4 245 -62 52 -51 73 -103 73 -175 0 -109 -24 -567 -33 -620 -5 -33 -12 -159 -15 -280 -3 -121 -10 -283 -16 -360 -5 -77 -15 -234 -20 -350 -6 -116 -14 -257 -18 -315 -3 -58 -5 -113 -3 -123 4 -15 21 -17 193 -17 103 0 190 3 192 8 7 11 -11 464 -22 582 -6 58 -13 210 -16 339 -4 129 -9 239 -12 244 -8 13 -34 516 -39 762 -5 205 -4 211 18 249 13 22 45 57 71 79 46 40 50 41 135 45 48 2 112 -1 142 -7 90 -19 220 -41 295 -52 39 -5 81 -14 95 -19 14 -6 59 -15 100 -20 129 -17 204 -30 230 -39 14 -5 57 -12 95 -16 39 -3 81 -10 95 -15 14 -5 57 -14 95 -20 170 -24 208 -30 257 -45 28 -8 69 -15 91 -15 22 0 56 -4 76 -9 65 -17 205 -43 251 -47 25 -2 72 -11 105 -18 145 -34 172 -27 141 35 -9 18 -16 37 -16 43 0 6 -6 23 -14 38 -8 15 -17 41 -21 59 -4 19 -11 40 -15 49 -22 45 -40 93 -40 107 0 9 -10 37 -21 62 -22 47 -27 59 -48 121 -46 138 -64 186 -72 194 -5 6 -9 32 -9 59 0 63 41 126 120 186 32 24 75 59 97 77 21 19 41 34 45 34 4 0 15 8 25 18 10 11 68 58 128 107 61 48 117 94 125 102 8 7 47 38 85 69 39 31 79 63 90 72 11 10 40 33 65 52 25 19 56 44 70 56 36 32 200 166 231 189 15 11 73 58 130 105 57 46 138 111 179 144 41 33 77 63 80 66 3 3 25 21 50 40 25 19 72 57 105 85 33 27 75 61 94 75 18 14 53 43 78 65 25 22 53 44 62 49 9 5 48 36 86 68 92 77 87 73 180 147 120 95 175 143 175 152 0 4 -10 10 -22 14 -13 3 -50 19 -83 35 -33 15 -89 42 -125 58 -202 94 -280 136 -306 163 -27 29 -29 35 -29 112 0 76 9 115 45 202 5 11 12 35 15 53 4 18 13 45 21 60 8 15 14 34 14 42 0 8 10 40 21 70 12 30 27 75 34 100 7 25 22 70 33 100 11 30 24 71 27 90 4 19 11 41 16 50 8 15 35 97 124 375 26 83 54 167 61 188 22 58 19 70 -13 63 -115 -28 -166 -38 -220 -46 -33 -5 -83 -16 -110 -24 -26 -8 -73 -19 -103 -24 -30 -6 -77 -16 -105 -22 -27 -6 -79 -18 -115 -25 -36 -7 -99 -21 -140 -30 -41 -9 -100 -20 -130 -24 -30 -5 -80 -15 -110 -24 -118 -32 -168 -40 -237 -41 -71 -1 -73 0 -112 38 -36 35 -50 58 -81 131 -4 11 -22 50 -39 86 -17 36 -31 71 -31 78 0 7 -9 29 -19 49 -11 20 -23 48 -29 62 -5 14 -18 45 -29 70 -12 25 -29 66 -38 93 -10 26 -23 47 -30 47 -6 0 -52 -44 -101 -97 -77 -84 -139 -151 -312 -331 -18 -19 -36 -40 -40 -47 -4 -7 -47 -55 -97 -107 -106 -110 -307 -326 -391 -419 -32 -36 -79 -76 -102 -89 -87 -45 -187 -12 -237 77 -20 36 -17 99 9 233 8 41 19 104 25 140 7 36 16 76 21 90 6 14 14 57 20 95 5 39 17 102 25 140 9 39 20 102 26 140 5 39 14 84 19 100 5 17 14 57 20 90 14 85 36 193 49 240 6 22 11 55 11 74 0 19 4 48 10 65 19 64 50 216 50 251 0 20 4 44 9 54 5 9 14 46 20 82 27 166 32 191 41 209 5 10 14 52 19 92 5 40 17 107 26 148 9 41 22 111 30 155 7 44 19 102 25 128 15 60 4 76 -32 47 -15 -11 -29 -20 -33 -20 -4 0 -41 -20 -82 -45 -40 -25 -76 -45 -78 -45 -2 0 -23 -12 -47 -27 -73 -47 -82 -53 -103 -62 -19 -8 -190 -108 -225 -131 -8 -6 -28 -17 -45 -25 -16 -8 -43 -23 -60 -34 -45 -31 -122 -45 -170 -32 -73 19 -91 48 -332 526 -5 11 -18 36 -28 55 -9 19 -61 121 -114 225 -53 105 -99 192 -103 193 -5 2 -8 9 -8 15 0 7 -7 26 -16 42 -9 17 -72 140 -141 275 -125 246 -139 270 -153 270 -5 0 -30 -44 -57 -97z"/> </g> </svg> 