<svg id="visual" viewBox="0 0 900 600" xmlns="http://www.w3.org/2000/svg" xmlns:xlink="http://www.w3.org/1999/xlink" version="1.1"><g stroke-width="1" stroke-linejoin="bevel"><path d="M426 294L491 284L487 235Z" fill="#fb9f2d" stroke="#fb9f2d"></path><path d="M487 235L395 229L426 294Z" fill="#f87d13" stroke="#f87d13"></path><path d="M573 178L488 138L487 235Z" fill="#f88317" stroke="#f88317"></path><path d="M487 235L488 138L395 229Z" fill="#f9891b" stroke="#f9891b"></path><path d="M428 410L460 403L426 294Z" fill="#f7770f" stroke="#f7770f"></path><path d="M426 294L460 403L491 284Z" fill="#f98e20" stroke="#f98e20"></path><path d="M616 320L573 178L491 284Z" fill="#fa9a29" stroke="#fa9a29"></path><path d="M491 284L573 178L487 235Z" fill="#fcaf3c" stroke="#fcaf3c"></path><path d="M334 385L428 410L426 294Z" fill="#f9891b" stroke="#f9891b"></path><path d="M365 78L306 184L395 229Z" fill="#f87d13" stroke="#f87d13"></path><path d="M262 309L334 385L426 294Z" fill="#fcaa37" stroke="#fcaa37"></path><path d="M460 403L616 320L491 284Z" fill="#f87d13" stroke="#f87d13"></path><path d="M262 309L426 294L395 229Z" fill="#fcaf3c" stroke="#fcaf3c"></path><path d="M306 184L262 309L395 229Z" fill="#fa9424" stroke="#fa9424"></path><path d="M438 0L365 78L488 138Z" fill="#f88317" stroke="#f88317"></path><path d="M488 138L365 78L395 229Z" fill="#f87d13" stroke="#f87d13"></path><path d="M676 173L617 134L573 178Z" fill="#fa9a29" stroke="#fa9a29"></path><path d="M573 178L617 134L488 138Z" fill="#fa9424" stroke="#fa9424"></path><path d="M616 320L671 289L573 178Z" fill="#f7770f" stroke="#f7770f"></path><path d="M306 184L233 300L262 309Z" fill="#f9891b" stroke="#f9891b"></path><path d="M235 419L334 474L334 385Z" fill="#fcaf3c" stroke="#fcaf3c"></path><path d="M224 182L233 300L306 184Z" fill="#fb9f2d" stroke="#fb9f2d"></path><path d="M415 496L524 484L460 403Z" fill="#fcaf3c" stroke="#fcaf3c"></path><path d="M460 403L626 423L616 320Z" fill="#fcaa37" stroke="#fcaa37"></path><path d="M616 320L685 377L671 289Z" fill="#fcaf3c" stroke="#fcaf3c"></path><path d="M415 496L460 403L428 410Z" fill="#f88317" stroke="#f88317"></path><path d="M566 482L626 423L460 403Z" fill="#fba432" stroke="#fba432"></path><path d="M334 474L428 410L334 385Z" fill="#f88317" stroke="#f88317"></path><path d="M334 474L415 496L428 410Z" fill="#f98e20" stroke="#f98e20"></path><path d="M671 289L676 173L573 178Z" fill="#fa9a29" stroke="#fa9a29"></path><path d="M235 419L334 385L262 309Z" fill="#f98e20" stroke="#f98e20"></path><path d="M279 66L224 182L306 184Z" fill="#fba432" stroke="#fba432"></path><path d="M524 484L566 482L460 403Z" fill="#f98e20" stroke="#f98e20"></path><path d="M590 600L566 482L524 484Z" fill="#fb9f2d" stroke="#fb9f2d"></path><path d="M688 512L685 377L626 423Z" fill="#fa9a29" stroke="#fa9a29"></path><path d="M626 423L685 377L616 320Z" fill="#f9891b" stroke="#f9891b"></path><path d="M785 160L738 66L676 173Z" fill="#fa9424" stroke="#fa9424"></path><path d="M507 0L488 138L569 0Z" fill="#f98e20" stroke="#f98e20"></path><path d="M507 0L438 0L488 138Z" fill="#fb9f2d" stroke="#fb9f2d"></path><path d="M365 78L279 66L306 184Z" fill="#fa9a29" stroke="#fa9a29"></path><path d="M299 0L279 66L365 78Z" fill="#fcaf3c" stroke="#fcaf3c"></path><path d="M569 0L488 138L617 134Z" fill="#f7770f" stroke="#f7770f"></path><path d="M85 373L235 419L233 300Z" fill="#fcaa37" stroke="#fcaa37"></path><path d="M233 300L235 419L262 309Z" fill="#f98e20" stroke="#f98e20"></path><path d="M672 0L569 0L617 134Z" fill="#fa9424" stroke="#fa9424"></path><path d="M438 0L299 0L365 78Z" fill="#fa9424" stroke="#fa9424"></path><path d="M279 66L211 75L224 182Z" fill="#f87d13" stroke="#f87d13"></path><path d="M193 0L211 75L279 66Z" fill="#f87d13" stroke="#f87d13"></path><path d="M224 182L120 174L233 300Z" fill="#fcaa37" stroke="#fcaa37"></path><path d="M275 600L436 600L415 496Z" fill="#fcaa37" stroke="#fcaa37"></path><path d="M415 496L474 600L524 484Z" fill="#f87d13" stroke="#f87d13"></path><path d="M566 482L688 512L626 423Z" fill="#f7770f" stroke="#f7770f"></path><path d="M275 600L415 496L334 474Z" fill="#f87d13" stroke="#f87d13"></path><path d="M436 600L474 600L415 496Z" fill="#f98e20" stroke="#f98e20"></path><path d="M738 66L617 134L676 173Z" fill="#f98e20" stroke="#f98e20"></path><path d="M738 66L672 0L617 134Z" fill="#f7770f" stroke="#f7770f"></path><path d="M590 600L688 512L566 482Z" fill="#fcaf3c" stroke="#fcaf3c"></path><path d="M785 160L676 173L671 289Z" fill="#fba432" stroke="#fba432"></path><path d="M785 160L671 289L824 296Z" fill="#f9891b" stroke="#f9891b"></path><path d="M137 124L120 174L224 182Z" fill="#fa9424" stroke="#fa9424"></path><path d="M824 296L671 289L685 377Z" fill="#f88317" stroke="#f88317"></path><path d="M121 0L137 124L211 75Z" fill="#fb9f2d" stroke="#fb9f2d"></path><path d="M211 75L137 124L224 182Z" fill="#f7770f" stroke="#f7770f"></path><path d="M85 373L208 509L235 419Z" fill="#f9891b" stroke="#f9891b"></path><path d="M235 419L208 509L334 474Z" fill="#f87d13" stroke="#f87d13"></path><path d="M474 600L590 600L524 484Z" fill="#f87d13" stroke="#f87d13"></path><path d="M299 0L193 0L279 66Z" fill="#fcaf3c" stroke="#fcaf3c"></path><path d="M789 433L824 296L685 377Z" fill="#fcaa37" stroke="#fcaa37"></path><path d="M827 507L789 433L688 512Z" fill="#fba432" stroke="#fba432"></path><path d="M688 512L789 433L685 377Z" fill="#f98e20" stroke="#f98e20"></path><path d="M208 509L275 600L334 474Z" fill="#fa9424" stroke="#fa9424"></path><path d="M62 301L85 373L233 300Z" fill="#f98e20" stroke="#f98e20"></path><path d="M208 509L221 600L275 600Z" fill="#f9891b" stroke="#f9891b"></path><path d="M120 174L62 301L233 300Z" fill="#fa9a29" stroke="#fa9a29"></path><path d="M0 271L62 301L0 182Z" fill="#f7770f" stroke="#f7770f"></path><path d="M590 600L675 600L688 512Z" fill="#f98e20" stroke="#f98e20"></path><path d="M98 526L221 600L208 509Z" fill="#fb9f2d" stroke="#fb9f2d"></path><path d="M900 239L839 92L785 160Z" fill="#fa9a29" stroke="#fa9a29"></path><path d="M785 160L839 92L738 66Z" fill="#fa9424" stroke="#fa9424"></path><path d="M738 66L806 0L672 0Z" fill="#fcaa37" stroke="#fcaa37"></path><path d="M193 0L121 0L211 75Z" fill="#fa9424" stroke="#fa9424"></path><path d="M0 182L62 301L120 174Z" fill="#fb9f2d" stroke="#fb9f2d"></path><path d="M839 92L806 0L738 66Z" fill="#fcaf3c" stroke="#fcaf3c"></path><path d="M0 512L98 526L85 373Z" fill="#fcaa37" stroke="#fcaa37"></path><path d="M85 373L98 526L208 509Z" fill="#fcaf3c" stroke="#fcaf3c"></path><path d="M789 600L827 507L688 512Z" fill="#f88317" stroke="#f88317"></path><path d="M900 381L900 306L824 296Z" fill="#fa9a29" stroke="#fa9a29"></path><path d="M824 296L900 239L785 160Z" fill="#f9891b" stroke="#f9891b"></path><path d="M900 306L900 239L824 296Z" fill="#fa9424" stroke="#fa9424"></path><path d="M839 92L900 0L806 0Z" fill="#fcaf3c" stroke="#fcaf3c"></path><path d="M900 381L824 296L789 433Z" fill="#f88317" stroke="#f88317"></path><path d="M0 182L120 174L0 71Z" fill="#f87d13" stroke="#f87d13"></path><path d="M62 301L0 369L85 373Z" fill="#fa9424" stroke="#fa9424"></path><path d="M900 487L900 381L789 433Z" fill="#fa9424" stroke="#fa9424"></path><path d="M0 71L120 174L137 124Z" fill="#f88317" stroke="#f88317"></path><path d="M0 271L0 369L62 301Z" fill="#fb9f2d" stroke="#fb9f2d"></path><path d="M675 600L789 600L688 512Z" fill="#f87d13" stroke="#f87d13"></path><path d="M827 507L900 487L789 433Z" fill="#fcaa37" stroke="#fcaa37"></path><path d="M900 239L900 92L839 92Z" fill="#fcaa37" stroke="#fcaa37"></path><path d="M121 0L0 71L137 124Z" fill="#fa9424" stroke="#fa9424"></path><path d="M900 600L900 487L827 507Z" fill="#f98e20" stroke="#f98e20"></path><path d="M98 526L70 600L221 600Z" fill="#fb9f2d" stroke="#fb9f2d"></path><path d="M0 512L70 600L98 526Z" fill="#f87d13" stroke="#f87d13"></path><path d="M900 92L900 0L839 92Z" fill="#fb9f2d" stroke="#fb9f2d"></path><path d="M0 369L0 512L85 373Z" fill="#fba432" stroke="#fba432"></path><path d="M121 0L0 0L0 71Z" fill="#fb9f2d" stroke="#fb9f2d"></path><path d="M789 600L900 600L827 507Z" fill="#fb9f2d" stroke="#fb9f2d"></path><path d="M0 512L0 600L70 600Z" fill="#f98e20" stroke="#f98e20"></path></g></svg>